<svg width="18" height="18" viewBox="0 0 18 18" fill="none" xmlns="http://www.w3.org/2000/svg">
<path d="M15.075 5.205C15.075 5.61 14.8575 5.9775 14.5125 6.165L13.2075 6.87L12.0975 7.4625L9.79505 8.7075C9.54755 8.8425 9.27755 8.91 9.00005 8.91C8.72255 8.91 8.45255 8.8425 8.20505 8.7075L3.48755 6.165C3.14255 5.9775 2.92505 5.61 2.92505 5.205C2.92505 4.8 3.14255 4.4325 3.48755 4.245L4.96505 3.45L6.14255 2.8125L8.20505 1.7025C8.70005 1.4325 9.30005 1.4325 9.79505 1.7025L14.5125 4.245C14.8575 4.4325 15.075 4.8 15.075 5.205Z" fill="#F6F6F6"/>
<path d="M7.42504 9.5925L3.03754 7.4025C2.70004 7.23 2.31004 7.2525 1.98754 7.4475C1.66504 7.6425 1.47754 7.9875 1.47754 8.3625V12.51C1.47754 13.23 1.87504 13.875 2.52004 14.1975L6.90754 16.3875C7.05754 16.4625 7.22254 16.5 7.38754 16.5C7.58254 16.5 7.77754 16.4475 7.95004 16.335C8.27254 16.14 8.46004 15.795 8.46004 15.42V11.2725C8.46754 10.56 8.07004 9.915 7.42504 9.5925Z" fill="#F6F6F6"/>
<path d="M16.5225 8.3625V12.51C16.5225 13.2225 16.125 13.8675 15.48 14.19L11.0925 16.3875C10.9425 16.4625 10.7775 16.5 10.6125 16.5C10.4175 16.5 10.2225 16.4475 10.0425 16.335C9.72747 16.14 9.53247 15.795 9.53247 15.42V11.28C9.53247 10.56 9.92997 9.915 10.575 9.5925L12.1875 8.79L13.3125 8.2275L14.9625 7.4025C15.3 7.23 15.69 7.245 16.0125 7.4475C16.3275 7.6425 16.5225 7.9875 16.5225 8.3625Z" fill="#F6F6F6"/>
<path d="M13.2076 6.87L12.0976 7.4625L4.96509 3.45L6.14259 2.8125L13.0276 6.6975C13.1026 6.7425 13.1626 6.8025 13.2076 6.87Z" fill="#F6F6F6"/>
<path d="M13.3125 8.22749V9.92999C13.3125 10.2375 13.0575 10.4925 12.75 10.4925C12.4425 10.4925 12.1875 10.2375 12.1875 9.92999V8.78999L13.3125 8.22749Z" fill="#F6F6F6"/>
</svg>
