<svg width="18" height="18" viewBox="0 0 18 18" fill="none" xmlns="http://www.w3.org/2000/svg">
<path d="M15.75 17.0625H2.25C1.9425 17.0625 1.6875 16.8075 1.6875 16.5C1.6875 16.1925 1.9425 15.9375 2.25 15.9375H15.75C16.0575 15.9375 16.3125 16.1925 16.3125 16.5C16.3125 16.8075 16.0575 17.0625 15.75 17.0625Z" fill="#F6F6F6"/>
<path d="M4.2 6.285H3C2.5875 6.285 2.25 6.6225 2.25 7.035V13.5C2.25 13.9125 2.5875 14.25 3 14.25H4.2C4.6125 14.25 4.95 13.9125 4.95 13.5V7.035C4.95 6.615 4.6125 6.285 4.2 6.285Z" fill="#F6F6F6"/>
<path d="M9.5999 3.8925H8.3999C7.9874 3.8925 7.6499 4.23 7.6499 4.6425V13.5C7.6499 13.9125 7.9874 14.25 8.3999 14.25H9.5999C10.0124 14.25 10.3499 13.9125 10.3499 13.5V4.6425C10.3499 4.23 10.0124 3.8925 9.5999 3.8925Z" fill="#F6F6F6"/>
<path d="M14.9998 1.5H13.7998C13.3873 1.5 13.0498 1.8375 13.0498 2.25V13.5C13.0498 13.9125 13.3873 14.25 13.7998 14.25H14.9998C15.4123 14.25 15.7498 13.9125 15.7498 13.5V2.25C15.7498 1.8375 15.4123 1.5 14.9998 1.5Z" fill="#F6F6F6"/>
</svg>
