<svg width="21" height="22" viewBox="0 0 21 22" fill="none" xmlns="http://www.w3.org/2000/svg">
<g clip-path="url(#clip0_1_357)">
<path d="M21 11.1644C21 10.4403 20.9254 9.71233 20.7663 9H8V13.1018H15.3106C15.0073 14.4247 14.0325 15.5949 12.6052 16.3386V19H16.9667C19.5279 17.1448 21 14.4051 21 11.1644Z" fill="#4285F4"/>
<path d="M10.71 21.5007C13.5419 21.5007 15.9301 20.5709 17.6701 18.9659L14.2865 16.3424C13.3451 16.9828 12.1298 17.3455 10.7139 17.3455C7.97456 17.3455 5.65194 15.4974 4.81858 13.0128H1.32693V15.7173C3.10941 19.263 6.73994 21.5007 10.71 21.5007Z" fill="#34A853"/>
<path d="M4.81471 13.0127C4.37488 11.7087 4.37488 10.2966 4.81471 8.99254V6.28796H1.32693C-0.162322 9.25489 -0.162322 12.7504 1.32693 15.7173L4.81471 13.0127Z" fill="#FBBC04"/>
<path d="M10.71 4.65595C12.207 4.6328 13.6538 5.1961 14.7379 6.23008L17.7357 3.23229C15.8375 1.44982 13.3181 0.469842 10.71 0.500708C6.73994 0.500708 3.10941 2.73844 1.32693 6.28796L4.81472 8.99253C5.64422 6.50401 7.9707 4.65595 10.71 4.65595Z" fill="#EA4335"/>
</g>
<defs>
<clipPath id="clip0_1_357">
<rect width="21" height="21" fill="white" transform="translate(0 0.5)"/>
</clipPath>
</defs>
</svg>
