<svg width="199" height="107" viewBox="0 0 199 107" fill="none" xmlns="http://www.w3.org/2000/svg">
<path d="M110.282 21.63C73.867 43.8203 40.6547 -0.403993 12.0838 35.1017C-17.8085 72.2419 21.3601 104.068 21.3601 104.068H166.662C166.662 104.068 205.525 79.5929 197.283 44.9923C189.042 10.3916 150.472 -2.85873 110.282 21.63Z" fill="#D2EAF9"/>
<path d="M58.2048 12.5859C65.1896 29.3654 110.972 21.083 101.976 6.32863C98.2586 0.234129 87.3223 10.3265 80.5656 4.74641C70.7491 -3.36007 53.941 2.33726 58.2048 12.5859Z" fill="#D2EAF9"/>
<path fill-rule="evenodd" clip-rule="evenodd" d="M19.8175 103.105C19.8175 103.105 25.1424 95.1418 21.0348 95.3043C21.0348 95.3043 28.918 77.6591 21.4905 79.4954C21.4905 79.4954 26.4964 61.3094 18.1706 64.5193C18.1706 64.5193 16.3088 54.5507 12.8066 56.12C9.30447 57.6827 12.3054 66.3683 12.3054 66.3683C12.3054 66.3683 5.77622 68.2181 15.2087 79.9057C15.2087 79.9057 7.30598 78.6876 17.4154 95.0308C17.4154 95.0308 13.4771 95.0768 17.3634 103.274L19.8175 103.105Z" fill="#79B0DD"/>
<path d="M18.229 104.277C18.3657 104.271 18.4829 104.173 18.5089 104.036C22.3887 85.7529 14.8895 61.7588 14.818 61.5179C14.7659 61.355 14.5901 61.2704 14.4338 61.316C14.2711 61.3681 14.18 61.5374 14.2321 61.7001C14.3102 61.9411 21.7572 85.7854 17.91 103.906C17.8774 104.075 17.9816 104.238 18.1444 104.271C18.1704 104.277 18.1964 104.277 18.229 104.277Z" fill="#A8D3F1"/>
<path fill-rule="evenodd" clip-rule="evenodd" d="M24.7647 102.441C29.8552 100.409 28.0977 97.6288 27.1602 97.4859C26.2229 97.3424 39.6132 87.7774 32.1987 86.1693C32.1987 86.1693 40.4855 78.3559 37.1396 74.9638C33.5593 71.33 27.2644 79.9247 26.5093 84.216C26.5093 84.216 20.2535 79.9836 22.5384 94.5102C22.5384 94.5102 17.1615 92.2183 21.3602 103.001L24.7647 102.441Z" fill="white"/>
<path fill-rule="evenodd" clip-rule="evenodd" d="M15.573 103.378C15.573 103.378 7.2407 94.9007 12.3573 95.3631C12.3573 95.3631 -0.336548 84.0141 6.95422 83.3891C6.95422 83.3891 -3.78015 73.7327 2.08504 70.0346C7.90465 66.3621 10.7819 81.6762 10.7819 81.6762C10.7819 81.6762 17.7342 76.2135 16.0417 93.8526C16.0417 93.8526 20.989 91.5282 17.3306 103.112L15.573 103.378Z" fill="#A8D3F1"/>
<path d="M22.343 105.26C22.4797 105.254 22.6034 105.15 22.6294 105.006C22.6359 104.961 23.4236 100.624 25.1812 95.2589C26.8021 90.3237 29.5948 83.4799 33.7284 78.9354C33.8455 78.8115 33.8325 78.6165 33.7088 78.4987C33.5852 78.3816 33.3898 78.3951 33.2727 78.5184C29.061 83.1481 26.2292 90.076 24.5888 95.07C22.8182 100.474 22.024 104.85 22.0175 104.896C21.985 105.065 22.1022 105.221 22.2649 105.254C22.2909 105.26 22.317 105.26 22.343 105.26Z" fill="#A8D3F1"/>
<path d="M16.4584 104.388C16.6212 104.374 16.7449 104.244 16.7449 104.075C16.7123 100.201 14.6617 93.9632 10.6518 85.5315C7.67689 79.2673 4.66945 74.0715 4.6369 74.0193C4.55227 73.8697 4.36349 73.8243 4.21378 73.909C4.06405 73.9936 4.01848 74.1825 4.10311 74.3321C4.22028 74.54 16.0483 95.0377 16.1264 104.082C16.1264 104.251 16.2696 104.388 16.4389 104.388C16.4454 104.388 16.4519 104.388 16.4584 104.388Z" fill="#79B0DD"/>
<path d="M96.0518 106.992C142.491 106.992 180.137 105.683 180.137 104.068C180.137 102.454 142.491 101.145 96.0518 101.145C49.6128 101.145 11.9667 102.454 11.9667 104.068C11.9667 105.683 49.6128 106.992 96.0518 106.992Z" fill="#9AC9EC"/>
<path fill-rule="evenodd" clip-rule="evenodd" d="M77.1935 57.7868C77.1935 59.2518 76.0087 60.4368 74.5441 60.4368C73.0789 60.4368 71.8947 59.2518 71.8947 57.7868C71.8947 56.3217 73.0789 55.1367 74.5441 55.1367C76.0087 55.1367 77.1935 56.3217 77.1935 57.7868Z" fill="white"/>
<path fill-rule="evenodd" clip-rule="evenodd" d="M189.335 53.841C189.335 55.306 188.15 56.491 186.686 56.491C185.221 56.491 184.036 55.306 184.036 53.841C184.036 52.3759 185.221 51.1909 186.686 51.1909C188.15 51.1909 189.335 52.3759 189.335 53.841Z" fill="white"/>
<path d="M182.949 37.3612C184.412 37.3612 185.598 36.1747 185.598 34.7111C185.598 33.2475 184.412 32.061 182.949 32.061C181.486 32.061 180.3 33.2475 180.3 34.7111C180.3 36.1747 181.486 37.3612 182.949 37.3612Z" fill="#A8D3F1"/>
<path d="M44.5149 11.3879C45.9781 11.3879 47.1643 10.2014 47.1643 8.73786C47.1643 7.27422 45.9781 6.08777 44.5149 6.08777C43.0517 6.08777 41.8655 7.27422 41.8655 8.73786C41.8655 10.2014 43.0517 11.3879 44.5149 11.3879Z" fill="#A8D3F1"/>
<path fill-rule="evenodd" clip-rule="evenodd" d="M69.2452 37.3352C69.2452 38.8002 68.0603 39.9852 66.5957 39.9852C65.1312 39.9852 63.9463 38.8002 63.9463 37.3352C63.9463 35.8701 65.1312 34.6851 66.5957 34.6851C68.0603 34.6851 69.2452 35.8701 69.2452 37.3352Z" fill="#A8D3F1"/>
<path fill-rule="evenodd" clip-rule="evenodd" d="M33.5137 65.9451C33.5137 66.7853 32.8301 67.4691 31.9904 67.4691C31.1506 67.4691 30.4672 66.7853 30.4672 65.9451C30.4672 65.1055 31.1506 64.4216 31.9904 64.4216C32.8301 64.4216 33.5137 65.1055 33.5137 65.9451Z" fill="#A8D3F1"/>
<path fill-rule="evenodd" clip-rule="evenodd" d="M184.472 76.1094C184.472 76.9496 183.789 77.6328 182.949 77.6328C182.109 77.6328 181.426 76.9496 181.426 76.1094C181.426 75.2698 182.109 74.5859 182.949 74.5859C183.789 74.5859 184.472 75.2698 184.472 76.1094Z" fill="white"/>
<path fill-rule="evenodd" clip-rule="evenodd" d="M98.1807 91.8208C98.1807 92.661 97.4968 93.3448 96.6572 93.3448C95.8176 93.3448 95.1338 92.661 95.1338 91.8208C95.1338 90.9812 95.8176 90.2974 96.6572 90.2974C97.4968 90.3041 98.1807 90.9812 98.1807 91.8208Z" fill="white"/>
<path fill-rule="evenodd" clip-rule="evenodd" d="M5.80213 50.4487H64.2715C64.2715 50.4487 63.8225 48.5605 61.7784 47.4471C59.1877 46.0407 56.037 46.9848 55.8938 47.0303C55.6465 46.6006 55.1908 46.3011 54.657 46.3011C54.4097 46.3011 54.1818 46.3662 53.98 46.4769C53.98 46.4769 53.98 46.4769 53.98 46.4704C53.98 44.8556 52.6716 43.5469 51.0572 43.5469C50.263 43.5469 49.5405 43.8659 49.0196 44.3803C48.7918 43.8919 48.3036 43.5469 47.7242 43.5469C47.6396 43.5469 47.5615 43.5599 47.4834 43.5729C47.6136 43.1692 47.6917 42.7395 47.6917 42.2902C47.6917 40.0243 45.856 38.1816 43.5841 38.1816C43.2261 38.1816 42.8811 38.2337 42.549 38.3183C42.3343 37.7975 41.8265 37.4328 41.2341 37.4328C41.1039 37.4328 40.9802 37.4589 40.8566 37.4914C40.8696 37.3026 40.8826 37.1138 40.8826 36.9184C40.8826 33.168 37.8426 30.1272 34.093 30.1272C30.3435 30.1272 27.3035 33.168 27.3035 36.9184C27.3035 37.0812 27.3165 37.244 27.3295 37.4002C26.8934 37.244 26.4247 37.1528 25.93 37.1528C25.279 37.1528 24.6671 37.3091 24.1203 37.5761C23.0722 36.1631 21.3992 35.245 19.505 35.245C16.3282 35.245 13.7569 37.817 13.7569 40.9945C13.7569 41.4503 13.8155 41.8865 13.9132 42.3162C12.3834 42.4986 11.1986 43.7943 11.1986 45.37C11.1986 45.5523 11.2181 45.7281 11.2442 45.8974C11.2246 45.8974 11.2116 45.8909 11.1986 45.8909C10.411 45.8909 9.77303 46.529 9.77303 47.3169C9.77303 47.3234 9.77303 47.3299 9.77303 47.3364C9.31085 47.3038 8.82911 47.3103 8.34086 47.3884C5.56127 47.8703 5.80213 50.4487 5.80213 50.4487ZM40.2316 39.8615C40.2446 39.8745 40.2642 39.8875 40.2772 39.9006C40.2511 39.9331 40.2251 39.9656 40.1991 40.0047L40.1666 39.9852C40.1861 39.9461 40.2056 39.9071 40.2316 39.8615Z" fill="white"/>
<path d="M158.245 13.9077H104.495V83.3236H158.245V13.9077Z" fill="#21334F"/>
<path d="M157.763 16.7727H104.983C104.195 16.7727 103.551 16.1345 103.551 15.3402C103.551 14.5523 104.189 13.9077 104.983 13.9077H157.763C158.551 13.9077 159.195 14.5458 159.195 15.3402C159.195 16.128 158.551 16.7727 157.763 16.7727Z" fill="#5F8CAA"/>
<path d="M157.588 83.3235H105.159V91.8275H157.588V83.3235Z" fill="#5F8CAA"/>
<path d="M157.815 94.5752H104.924C104.163 94.5752 103.551 93.957 103.551 93.2014C103.551 92.4397 104.169 91.8276 104.924 91.8276H157.815C158.577 91.8276 159.189 92.4465 159.189 93.2014C159.195 93.9631 158.577 94.5752 157.815 94.5752Z" fill="#79B0DD"/>
<path d="M105.914 16.7727L87.4067 12.9701V85.1211L105.914 83.3236V16.7727Z" fill="url(#paint0_linear_5_154)"/>
<path d="M156.637 16.8833L175.144 13.0808V85.2315L156.637 83.4278V16.8833Z" fill="url(#paint1_linear_5_154)"/>
<path d="M87.4069 12.9701H86.2876V85.1211H87.4069V12.9701Z" fill="#21334F"/>
<path d="M176.459 12.9701H175.339V85.1211H176.459V12.9701Z" fill="#21334F"/>
<path d="M111.922 86.2471H108.739V89.4313H111.922V86.2471Z" fill="#F92D5E"/>
<path d="M112.124 89.633H108.544V86.052H112.124V89.633ZM108.941 89.2295H111.727V86.4427H108.941V89.2295Z" fill="white"/>
<path d="M115.106 86.2471H111.922V89.4313H115.106V86.2471Z" fill="#FCB735"/>
<path d="M115.308 89.633H111.727V86.052H115.308V89.633ZM112.124 89.2295H114.91V86.4427H112.124V89.2295Z" fill="white"/>
<path d="M135.481 89.9263H127.272C126.778 89.9263 126.38 89.5289 126.38 89.034V86.6378C126.38 86.1435 126.778 85.7461 127.272 85.7461H135.481C135.976 85.7461 136.373 86.1435 136.373 86.6378V89.034C136.366 89.5289 135.969 89.9263 135.481 89.9263Z" fill="#79B0DD"/>
<path d="M151.709 86.2471H148.526V89.4313H151.709V86.2471Z" fill="#F92D5E"/>
<path d="M151.905 89.633H148.324V86.052H151.905V89.633ZM148.721 89.2295H151.507V86.4427H148.721V89.2295Z" fill="white"/>
<path d="M154.892 86.2471H151.709V89.4313H154.892V86.2471Z" fill="#FCB735"/>
<path d="M155.088 89.633H151.507V86.052H155.088V89.633ZM151.905 89.2295H154.69V86.4427H151.905V89.2295Z" fill="white"/>
<path d="M116.648 102.597H113.57C112.781 102.597 112.15 101.959 112.15 101.178V94.5752H118.074V101.178C118.067 101.965 117.43 102.597 116.648 102.597Z" fill="#21334F"/>
<path d="M150.062 102.597H146.983C146.196 102.597 145.564 101.959 145.564 101.178V94.5752H151.488V101.178C151.488 101.965 150.85 102.597 150.062 102.597Z" fill="#21334F"/>
<path d="M105.914 83.2132V66.6487H125.899V83.2132H105.914Z" fill="url(#paint2_linear_5_154)"/>
<path d="M125.899 83.2132V66.6487H145.89V83.2132H125.899Z" fill="url(#paint3_linear_5_154)"/>
<path d="M142.687 83.2132V66.6487H156.637V83.2132H142.687Z" fill="url(#paint4_linear_5_154)"/>
<path d="M105.914 46.6592H122.475V66.6486H105.914V46.6592Z" fill="url(#paint5_linear_5_154)"/>
<path d="M142.687 60.6648H122.181V66.6229H142.687V60.6648Z" fill="url(#paint6_linear_5_154)"/>
<path d="M56.9743 63.8944C57.2868 64.2979 57.8661 64.3629 58.2697 64.0507C58.6733 63.738 58.7384 63.1584 58.4259 62.7548C58.1134 62.3513 57.5341 62.2863 57.1305 62.5985C56.7269 62.918 56.6618 63.4969 56.9743 63.8944Z" fill="#00081A"/>
<path d="M56.5643 63.6796C56.6164 63.5686 56.8768 62.9111 56.8768 62.9111L58.5823 63.5882L58.2503 64.4149L56.5643 63.6796Z" fill="#00081A"/>
<path d="M35.3234 95.9102L33.6634 97.8893C33.4486 98.1107 33.4681 98.4688 33.7025 98.6706L35.2843 100.025C35.4276 100.143 35.6163 100.188 35.7921 100.129L35.9418 100.084C36.1371 100.025 36.3519 100.084 36.4886 100.24C37.2633 101.132 39.9713 104.003 41.8721 103.079C44.1114 101.985 38.8972 99.4845 38.78 98.8074C38.6628 98.1303 38.7475 98.0132 38.7475 98.0132L35.3234 95.9102Z" fill="#00081A"/>
<path d="M36.5731 97.8046C37.3282 98.2867 38.3112 98.091 38.7734 97.3686L36.0328 95.6299C35.5771 96.353 35.8179 97.3293 36.5731 97.8046Z" fill="#FCB2BA"/>
<path d="M55.5616 99.5435L55.6723 102.129C55.6658 102.441 55.9197 102.695 56.2256 102.682L58.3022 102.617C58.4845 102.61 58.6537 102.512 58.7513 102.35L58.8295 102.213C58.9336 102.037 59.1355 101.933 59.3372 101.959C60.5155 102.096 64.4473 102.395 65.2286 100.435C66.1529 98.1237 60.6066 99.7845 60.0663 99.3614C59.526 98.9376 59.5065 98.7947 59.5065 98.7947L55.5616 99.5435Z" fill="#00081A"/>
<path d="M57.762 100.103C58.6929 99.9403 59.3243 99.1265 59.1746 98.2869L55.8091 98.8793C55.9588 99.7128 56.8311 100.266 57.762 100.103Z" fill="#FCB2BA"/>
<path d="M39.1574 97.6618L35.5966 95.4214L43.3496 82.2104C43.662 81.6829 43.7792 81.058 43.6815 80.4527L41.7417 68.2241L46.8062 67.7163L49.397 71.6101L50.2173 80.882C50.2758 81.5204 50.1001 82.1515 49.7355 82.6728L39.1574 97.6618Z" fill="#37255C"/>
<path d="M41.6961 66.2188C41.3706 69.9501 43.2845 73.0166 46.8127 76.2008C49.0846 78.2517 50.6339 79.7169 51.4411 80.4982C51.8772 80.9214 52.1701 81.4617 52.2808 82.0609L55.3859 98.9444L59.5651 98.2477L57.5015 80.9993C57.4365 80.4718 57.3063 79.9579 57.098 79.463L51.1546 65.1118L41.6961 66.2188Z" fill="url(#paint7_linear_5_154)"/>
<path d="M41.2274 40.7273C41.2274 40.7273 39.9645 39.679 39.0728 37.8689C39.0728 37.8689 41.6766 33.005 47.353 34.711L41.2274 40.7273Z" fill="#442F6E"/>
<path d="M47.366 34.7045C47.366 34.7045 48.1081 37.4588 47.366 39.7703C46.6239 42.0818 46.3766 42.1664 44.4757 42.0427V44.4779L40.7978 43.69C40.7978 43.69 41.6506 39.7637 41.0321 39.1582C40.5114 38.6503 40.2185 37.6736 40.8304 37.2439C41.7938 36.5603 42.6986 37.6671 42.8093 38.162L43.0697 36.2086C43.0697 36.2217 46.5393 34.5157 47.366 34.7045Z" fill="url(#paint8_linear_5_154)"/>
<path d="M46.3376 35.1343C46.3506 35.1343 46.3636 35.1278 46.3766 35.1278L52.0465 33.207C52.1507 33.1744 52.2028 33.0637 52.1702 32.9595C52.1377 32.8554 52.027 32.8032 51.9229 32.8358L46.2529 34.7567C46.1488 34.7892 46.0967 34.8999 46.1292 35.0041C46.1618 35.0887 46.2464 35.1408 46.3376 35.1343Z" fill="#CC0A31"/>
<path d="M47.3597 34.8023L39.0339 37.856C39.0339 37.856 37.6018 33.8516 41.2211 32.2954C44.847 30.7393 47.0082 32.901 47.3597 34.8023Z" fill="url(#paint9_linear_5_154)"/>
<path d="M46.2727 52.4542L46.4159 53.7174C46.4354 53.8866 46.52 54.0429 46.6567 54.1536L55.3471 60.9904C55.5294 61.1336 55.7703 61.1662 55.985 61.0815L57.3586 60.5346C57.5669 60.45 57.8013 60.4825 57.9835 60.6127L59.1683 61.4918C59.5263 61.7587 59.65 62.2341 59.4677 62.6377L59.1683 63.3086C59.0576 63.5558 58.8038 63.7054 58.5368 63.6858L56.2259 63.5361C56.1283 63.53 56.0306 63.5036 55.946 63.4515L43.6558 56.3934C43.2587 56.1656 42.9723 55.7879 42.8616 55.3451L42.3669 53.3723C42.2823 53.0272 42.484 52.6821 42.8291 52.5909L45.472 51.9007C45.8496 51.803 46.2336 52.0635 46.2727 52.4542Z" fill="#FA7782"/>
<path d="M51.4868 62.8786C51.4868 62.8786 49.9961 49.7649 47.1579 46.2944C44.3197 42.824 40.4139 42.4528 39.1641 45.6042C37.9143 48.7557 39.8736 52.721 40.6613 56.1849C42.139 62.6376 41.2081 65.0337 41.475 66.2254L51.6235 65.4765L51.4868 62.8786Z" fill="url(#paint10_linear_5_154)"/>
<path d="M40.7393 47.8442L41.5269 54.2252H42.4122L42.0737 48.3716L40.7393 47.8442Z" fill="#BC2060"/>
<path d="M46.1747 47.6748L47.1577 53.8409L46.1487 53.919L45.4261 47.6748H46.1747Z" fill="#BC2060"/>
<path d="M46.2727 53.1247L46.4159 54.3879C46.4354 54.5572 46.52 54.7134 46.6567 54.8241L55.3471 61.6609C55.5294 61.8041 55.7703 61.8367 55.985 61.7521L57.3586 61.2051C57.5669 61.1205 57.8013 61.1531 57.9835 61.2833L59.1683 62.1623C59.5263 62.429 59.65 62.9043 59.4677 63.3085L59.1683 63.9788C59.0576 64.2266 58.8038 64.3762 58.5368 64.3566L56.2259 64.207C56.1283 64.2002 56.0306 64.1745 55.946 64.1223L43.6558 57.0705C43.2587 56.8426 42.9723 56.465 42.8616 56.0222L42.3669 54.0493C42.2823 53.7042 42.484 53.3591 42.8291 53.268L45.472 52.5778C45.8496 52.4736 46.2336 52.734 46.2727 53.1247Z" fill="#FCB2BA"/>
<path d="M46.0967 47.4795L46.7412 53.4763L41.872 53.8409L40.7393 47.8441L46.0967 47.4795Z" fill="url(#paint11_linear_5_154)"/>
<path d="M85.7012 93.8459L70.1044 99.4128L63.3864 80.5828L78.9837 75.0159L85.7012 93.8459Z" fill="url(#paint12_linear_5_154)"/>
<path d="M76.7184 75.7384L63.3602 80.5043L61.9741 76.624L75.3385 71.8574L76.7184 75.7384Z" fill="url(#paint13_linear_5_154)"/>
<path d="M68.6202 74.2603L61.9346 76.6436L59.0378 68.5241L65.723 66.1409L68.6202 74.2603Z" fill="url(#paint14_linear_5_154)"/>
<path d="M69.8635 99.6864L57.1762 64.1679C57.1111 63.9857 57.2088 63.784 57.391 63.7183C57.5733 63.6533 57.7751 63.7515 57.8402 63.9336L70.2934 98.7879L87.9668 92.7064C88.1489 92.6414 88.3507 92.739 88.4157 92.9279C88.4813 93.11 88.3832 93.3124 88.1949 93.3774L69.8635 99.6864Z" fill="#00081A"/>
<path d="M70.1046 102.714C72.042 102.714 73.6133 101.143 73.6133 99.205C73.6133 97.2663 72.042 95.6951 70.1046 95.6951C68.1666 95.6951 66.5959 97.2663 66.5959 99.205C66.5959 101.143 68.1666 102.714 70.1046 102.714Z" fill="#00081A"/>
<path d="M70.1044 100.461C70.7802 100.461 71.3279 99.9132 71.3279 99.2373C71.3279 98.5609 70.7802 98.0132 70.1044 98.0132C69.4285 98.0132 68.8802 98.5609 68.8802 99.2373C68.8802 99.9132 69.4285 100.461 70.1044 100.461Z" fill="#FDBE42"/>
<path d="M56.6815 64.6236C56.9939 65.0272 57.5733 65.0928 57.9769 64.78C58.3805 64.4672 58.4456 63.8876 58.1331 63.4841C57.8207 63.0805 57.2413 63.0155 56.8377 63.3277C56.4406 63.6405 56.369 64.2201 56.6815 64.6236Z" fill="#30353D"/>
<defs>
<linearGradient id="paint0_linear_5_154" x1="104.411" y1="50.7093" x2="86.3537" y2="48.9432" gradientUnits="userSpaceOnUse">
<stop stop-color="#97CBE8"/>
<stop offset="1" stop-color="#C1E1E8"/>
</linearGradient>
<linearGradient id="paint1_linear_5_154" x1="157.843" y1="50.9569" x2="176.686" y2="48.9946" gradientUnits="userSpaceOnUse">
<stop stop-color="#97CBE8"/>
<stop offset="1" stop-color="#C1E1E8"/>
</linearGradient>
<linearGradient id="paint2_linear_5_154" x1="105.912" y1="74.9337" x2="125.9" y2="74.9337" gradientUnits="userSpaceOnUse">
<stop stop-color="#F4B073"/>
<stop offset="1" stop-color="#E2995C"/>
</linearGradient>
<linearGradient id="paint3_linear_5_154" x1="125.9" y1="74.9337" x2="145.888" y2="74.9337" gradientUnits="userSpaceOnUse">
<stop stop-color="#E09E4F"/>
<stop offset="1" stop-color="#CD8B3A"/>
</linearGradient>
<linearGradient id="paint4_linear_5_154" x1="142.689" y1="74.9337" x2="156.64" y2="74.9337" gradientUnits="userSpaceOnUse">
<stop stop-color="#F4B073"/>
<stop offset="1" stop-color="#E2995C"/>
</linearGradient>
<linearGradient id="paint5_linear_5_154" x1="105.912" y1="56.6548" x2="122.472" y2="56.6548" gradientUnits="userSpaceOnUse">
<stop stop-color="#E09E4F"/>
<stop offset="1" stop-color="#CD8B3A"/>
</linearGradient>
<linearGradient id="paint6_linear_5_154" x1="122.183" y1="63.6453" x2="142.689" y2="63.6453" gradientUnits="userSpaceOnUse">
<stop stop-color="#F4B073"/>
<stop offset="1" stop-color="#E2995C"/>
</linearGradient>
<linearGradient id="paint7_linear_5_154" x1="47.7199" y1="66.033" x2="54.2001" y2="95.2854" gradientUnits="userSpaceOnUse">
<stop stop-color="#473071"/>
<stop offset="1" stop-color="#382A5F"/>
</linearGradient>
<linearGradient id="paint8_linear_5_154" x1="47.6213" y1="36.8152" x2="41.241" y2="42.0163" gradientUnits="userSpaceOnUse">
<stop stop-color="#FDD7DB"/>
<stop offset="1" stop-color="#FBADAF"/>
</linearGradient>
<linearGradient id="paint9_linear_5_154" x1="45.8692" y1="32.0736" x2="38.9672" y2="37.9231" gradientUnits="userSpaceOnUse">
<stop stop-color="#FF5B96"/>
<stop offset="1" stop-color="#DA3362"/>
</linearGradient>
<linearGradient id="paint10_linear_5_154" x1="49.7624" y1="49.0641" x2="42.4977" y2="59.6641" gradientUnits="userSpaceOnUse">
<stop stop-color="#FF5B96"/>
<stop offset="1" stop-color="#DA3362"/>
</linearGradient>
<linearGradient id="paint11_linear_5_154" x1="46.4078" y1="46.7651" x2="39.1431" y2="57.365" gradientUnits="userSpaceOnUse">
<stop stop-color="#FF5B96"/>
<stop offset="1" stop-color="#DA3362"/>
</linearGradient>
<linearGradient id="paint12_linear_5_154" x1="63.3857" y1="87.2119" x2="85.6999" y2="87.2119" gradientUnits="userSpaceOnUse">
<stop stop-color="#F4B073"/>
<stop offset="1" stop-color="#E2995C"/>
</linearGradient>
<linearGradient id="paint13_linear_5_154" x1="61.9747" y1="76.1818" x2="76.7209" y2="76.1818" gradientUnits="userSpaceOnUse">
<stop stop-color="#E09E4F"/>
<stop offset="1" stop-color="#CD8B3A"/>
</linearGradient>
<linearGradient id="paint14_linear_5_154" x1="59.0405" y1="71.3907" x2="68.6183" y2="71.3907" gradientUnits="userSpaceOnUse">
<stop stop-color="#F4B073"/>
<stop offset="1" stop-color="#E2995C"/>
</linearGradient>
</defs>
</svg>
