<svg width="333" height="273" viewBox="0 0 333 273" fill="none" xmlns="http://www.w3.org/2000/svg">
<g clip-path="url(#clip0_1_55)">
<path d="M264 173.936C284.987 173.936 302 134.999 302 86.9679C302 38.9369 284.987 0 264 0C243.013 0 226 38.9369 226 86.9679C226 134.999 243.013 173.936 264 173.936Z" fill="#A8D3F1"/>
<path d="M264 272.754C263.2 272.754 262.548 272.098 262.548 271.295V76.5599C262.548 75.7568 263.2 75.1012 264 75.1012C264.799 75.1012 265.452 75.7568 265.452 76.5599V271.312C265.468 272.098 264.816 272.754 264 272.754Z" fill="#86BDE6"/>
<path d="M264 136.549C263.625 136.549 263.249 136.402 262.972 136.123C262.401 135.549 262.401 134.615 262.972 134.058L285.912 111.013C286.483 110.439 287.397 110.439 287.968 111.013C288.539 111.586 288.539 112.521 287.968 113.078L265.028 136.123C264.751 136.402 264.375 136.549 264 136.549Z" fill="#86BDE6"/>
<path d="M264 107.62C263.625 107.62 263.249 107.472 262.972 107.194C262.401 106.62 262.401 105.702 262.972 105.129L274.605 93.4422C275.176 92.8685 276.09 92.8685 276.661 93.4422C277.232 94.0158 277.232 94.9501 276.661 95.5074L265.028 107.194C264.751 107.489 264.375 107.62 264 107.62Z" fill="#86BDE6"/>
<path d="M264 125.863C263.625 125.863 263.249 125.715 262.972 125.436L243.654 106.014C243.083 105.44 243.083 104.506 243.654 103.948C244.225 103.375 245.139 103.375 245.71 103.948L265.028 123.355C265.599 123.928 265.599 124.863 265.028 125.42C264.751 125.715 264.375 125.863 264 125.863Z" fill="#86BDE6"/>
<path d="M259.187 273C259.187 273 257.898 264.362 246.64 257.659C246.64 257.659 260.019 261.805 265.256 270.525C265.256 270.525 269.906 240.76 273.398 231.712L272.24 270.689C272.24 270.689 283.253 254.446 294.87 248.611C294.87 248.611 281.67 263.035 281.523 272.984H259.187V273Z" fill="#9AC9EC"/>
<path fill-rule="evenodd" clip-rule="evenodd" d="M40.8066 264.499C40.8066 264.499 28.7753 248.87 37.2613 248.672C37.2613 248.672 18.6805 213.532 34.2285 216.323C34.2285 216.323 21.5139 179.696 39.098 185.179C39.098 185.179 41.6182 164.506 49.0362 167.255C56.4543 170.004 51.4283 188.197 51.4283 188.197C51.4283 188.197 65.1254 191.13 47.2422 216.323C47.2422 216.323 63.3598 212.781 44.6936 247.623C44.6936 247.623 52.8236 247.198 45.8896 264.513H40.8066V264.499Z" fill="#79B0DD"/>
<path d="M44.238 266.681C43.9532 266.681 43.6969 266.496 43.6257 266.213C33.2176 229.231 45.4909 179.058 45.6191 178.548C45.7045 178.208 46.0462 178.009 46.3879 178.08C46.7297 178.165 46.9432 178.505 46.8578 178.845C46.7297 179.341 34.5418 229.203 44.8502 265.859C44.9499 266.199 44.7505 266.539 44.4088 266.638C44.3519 266.681 44.2949 266.681 44.238 266.681Z" fill="#A8D3F1"/>
<path fill-rule="evenodd" clip-rule="evenodd" d="M30.5266 263.79C19.7768 260.304 23.0231 254.368 24.931 253.942C26.8389 253.517 -2.00759 235.678 13.0564 231.413C13.0564 231.413 -5.05455 216.493 1.39534 209.083C8.28661 201.162 22.3966 217.953 24.5181 226.653C24.5181 226.653 36.8484 217.145 34.0577 247.24C34.0577 247.24 44.836 241.828 37.603 264.499L30.5266 263.79Z" fill="white"/>
<path fill-rule="evenodd" clip-rule="evenodd" d="M49.5915 264.498C49.5915 264.498 65.6379 246.022 55.1587 247.637C55.1587 247.637 79.8192 222.699 64.6982 222.388C64.6982 222.388 85.5429 201.176 72.9706 194.361C60.498 187.602 56.5825 219.369 56.5825 219.369C56.5825 219.369 41.5327 209.083 47.3561 245.016C47.3561 245.016 36.8626 240.893 45.9181 264.173L49.5915 264.498Z" fill="#A8D3F1"/>
<path d="M35.8944 269.245C35.6097 269.245 35.3534 269.047 35.2822 268.763C35.2679 268.678 33.0753 259.879 28.7326 249.111C24.7459 239.206 18.0825 225.547 8.95581 216.777C8.69953 216.536 8.69953 216.139 8.94157 215.884C9.18362 215.629 9.58229 215.629 9.83858 215.87C19.1219 224.811 25.885 238.64 29.9144 248.671C34.2713 259.511 36.4924 268.381 36.5067 268.466C36.5921 268.806 36.3785 269.146 36.0368 269.231C35.9941 269.245 35.9371 269.245 35.8944 269.245Z" fill="#A8D3F1"/>
<path d="M47.8972 266.681C47.5555 266.681 47.2849 266.425 47.2565 266.085C46.8151 258.137 50.2038 245.087 57.3513 227.276C62.6621 214.042 68.1723 202.99 68.2293 202.891C68.3859 202.579 68.7703 202.451 69.0836 202.607C69.3968 202.763 69.5249 203.146 69.3683 203.457C69.1548 203.897 47.4843 247.481 48.5237 266.029C48.5379 266.383 48.2674 266.681 47.9257 266.695C47.9257 266.681 47.9114 266.681 47.8972 266.681Z" fill="#79B0DD"/>
<path d="M41.7605 273C56.308 273 68.1011 271.414 68.1011 269.458C68.1011 267.501 56.308 265.915 41.7605 265.915C27.213 265.915 15.4199 267.501 15.4199 269.458C15.4199 271.414 27.213 273 41.7605 273Z" fill="#9AC9EC"/>
<path fill-rule="evenodd" clip-rule="evenodd" d="M296.807 264.499C296.807 264.499 284.775 248.87 293.261 248.672C293.261 248.672 274.68 213.532 290.229 216.323C290.229 216.323 277.514 179.696 295.098 185.179C295.098 185.179 297.618 164.506 305.036 167.255C312.454 170.004 307.428 188.197 307.428 188.197C307.428 188.197 321.125 191.13 303.242 216.323C303.242 216.323 319.36 212.781 300.694 247.623C300.694 247.623 308.824 247.198 301.89 264.513H296.807V264.499Z" fill="#79B0DD"/>
<path d="M300.238 266.681C299.953 266.681 299.697 266.496 299.626 266.213C289.218 229.231 301.491 179.058 301.619 178.548C301.705 178.208 302.046 178.009 302.388 178.08C302.73 178.165 302.943 178.505 302.858 178.845C302.73 179.341 290.542 229.203 300.85 265.859C300.95 266.199 300.751 266.539 300.409 266.638C300.352 266.681 300.295 266.681 300.238 266.681Z" fill="#A8D3F1"/>
<path fill-rule="evenodd" clip-rule="evenodd" d="M286.527 263.79C275.777 260.304 279.023 254.368 280.931 253.942C282.839 253.517 253.992 235.678 269.056 231.413C269.056 231.413 250.945 216.493 257.395 209.083C264.287 201.162 278.397 217.953 280.518 226.653C280.518 226.653 292.848 217.145 290.058 247.24C290.058 247.24 300.836 241.828 293.603 264.499L286.527 263.79Z" fill="white"/>
<path fill-rule="evenodd" clip-rule="evenodd" d="M305.592 264.498C305.592 264.498 321.638 246.022 311.159 247.637C311.159 247.637 335.819 222.699 320.698 222.388C320.698 222.388 341.543 201.176 328.971 194.361C316.498 187.602 312.582 219.369 312.582 219.369C312.582 219.369 297.533 209.083 303.356 245.016C303.356 245.016 292.863 240.893 301.918 264.173L305.592 264.498Z" fill="#A8D3F1"/>
<path d="M291.894 269.245C291.61 269.245 291.353 269.047 291.282 268.763C291.268 268.678 289.075 259.879 284.733 249.111C280.746 239.206 274.082 225.547 264.956 216.777C264.7 216.536 264.7 216.139 264.942 215.884C265.184 215.629 265.582 215.629 265.839 215.87C275.122 224.811 281.885 238.64 285.914 248.671C290.271 259.511 292.492 268.381 292.507 268.466C292.592 268.806 292.379 269.146 292.037 269.231C291.994 269.245 291.937 269.245 291.894 269.245Z" fill="#A8D3F1"/>
<path d="M303.897 266.681C303.555 266.681 303.285 266.425 303.256 266.085C302.815 258.137 306.204 245.087 313.351 227.276C318.662 214.042 324.172 202.99 324.229 202.891C324.386 202.579 324.77 202.451 325.084 202.607C325.397 202.763 325.525 203.146 325.368 203.457C325.155 203.897 303.484 247.481 304.524 266.029C304.538 266.383 304.267 266.681 303.926 266.695C303.926 266.681 303.911 266.681 303.897 266.681Z" fill="#79B0DD"/>
<path d="M297.761 273C312.308 273 324.101 271.414 324.101 269.458C324.101 267.501 312.308 265.915 297.761 265.915C283.213 265.915 271.42 267.501 271.42 269.458C271.42 271.414 283.213 273 297.761 273Z" fill="#9AC9EC"/>
<path d="M64.9935 271.208V90.1181" stroke="#86BDE6" stroke-width="2.6818" stroke-miterlimit="10" stroke-linecap="round"/>
<path d="M53 76.1264L58.6694 101.328H64.9935V76.1264H53Z" fill="white"/>
<path d="M77 76.1264L71.3306 101.328H64.9935V76.1264H77Z" fill="white"/>
<path d="M75.3241 77.4908L70.27 99.9631H64.9935H59.73L54.6759 77.4908H64.9935H75.3241ZM77 76.1264H64.9935H53L58.6694 101.314H65.0065H71.3306L77 76.1264Z" fill="#86BDE6"/>
<path d="M64.9935 70L53 76.1264H64.9935H77L64.9935 70Z" fill="#1579B9"/>
<path d="M65.6481 76.22H64.3388V100.966H65.6481V76.22Z" fill="#86BDE6"/>
<path d="M126.542 163.078L125.968 162.947L128.708 151.132C128.878 150.373 129.544 149.849 130.327 149.849H134.124V150.438H130.327C129.831 150.438 129.4 150.778 129.283 151.276L126.542 163.078Z" fill="#A8D3F1"/>
<path d="M127.038 163.117L126.49 162.908L132.258 147.56C132.519 146.866 133.184 146.408 133.915 146.408H138.209V146.997H133.915C133.419 146.997 132.976 147.311 132.806 147.769L127.038 163.117Z" fill="white"/>
<path d="M135.533 146.997C134.75 146.997 134.124 148.41 134.124 150.15C134.124 151.891 134.75 153.304 135.533 153.304V146.997Z" fill="#A8D3F1"/>
<path d="M142.659 146.879C142.659 149.627 141.667 151.851 140.44 151.851C139.213 151.851 138.222 149.627 138.222 146.879C138.222 144.131 139.213 141.907 140.44 141.907C141.667 141.907 142.659 144.131 142.659 146.879Z" fill="white"/>
<path d="M101.708 231.431C90.2635 231.431 80.985 240.734 80.985 252.209C80.985 263.684 90.2635 272.987 101.708 272.987C113.153 272.987 122.431 263.684 122.431 252.209C122.431 240.734 113.166 231.431 101.708 231.431ZM101.708 264.992C94.6743 264.992 88.9716 259.274 88.9716 252.222C88.9716 245.169 94.6743 239.452 101.708 239.452C108.742 239.452 114.445 245.169 114.445 252.222C114.445 259.274 108.742 264.992 101.708 264.992Z" fill="#00081A"/>
<path d="M101.708 256.043C103.813 256.043 105.519 254.332 105.519 252.222C105.519 250.112 103.813 248.401 101.708 248.401C99.6037 248.401 97.8976 250.112 97.8976 252.222C97.8976 254.332 99.6037 256.043 101.708 256.043Z" fill="white"/>
<path d="M217.578 252.222C217.578 254.328 215.868 256.043 213.767 256.043C211.666 256.043 209.957 254.328 209.957 252.222C209.957 250.115 211.666 248.401 213.767 248.401C215.868 248.401 217.578 250.115 217.578 252.222Z" fill="white"/>
<path d="M213.767 231.431C202.323 231.431 193.044 240.734 193.044 252.209C193.044 263.684 202.323 272.987 213.767 272.987C225.212 272.987 234.49 263.684 234.49 252.209C234.49 240.734 225.212 231.431 213.767 231.431ZM213.767 264.992C206.733 264.992 201.031 259.274 201.031 252.222C201.031 245.169 206.733 239.452 213.767 239.452C220.801 239.452 226.504 245.169 226.504 252.222C226.504 259.274 220.801 264.992 213.767 264.992Z" fill="#00081A"/>
<path d="M116.455 169.842C116.455 172.878 118.908 175.351 121.949 175.351V164.334C118.921 164.334 116.455 166.794 116.455 169.842Z" fill="white"/>
<path d="M139.005 170.248C139.005 170.248 138.939 168.442 136.617 168.325C134.281 168.207 131.945 166.741 131.579 165.21C131.488 164.831 131.449 164.478 131.423 164.151C131.371 163.169 130.535 162.423 129.557 162.423H123.893C122.862 162.423 122.027 163.261 122.027 164.295V175.312C122.027 176.345 122.862 177.183 123.893 177.183H128.226C128.226 177.183 130.783 178.936 127.717 183.175C124.65 187.415 111.026 205.393 107.372 211.686C103.731 217.967 103.287 224.849 103.287 224.849L106.197 236.979L124.859 247.511L130.548 252.85C131.292 253.556 132.284 253.949 133.315 253.949H195.302V244.45H244.004C244.004 244.45 240.937 225.438 220.527 213.309H174.879C174.879 213.309 182.656 221.787 181.025 233.629C179.394 245.47 167.44 249.121 162.481 249.121C157.522 249.121 145.425 249.121 139.148 249.121C132.884 249.121 125.146 236.691 124.415 223.829C123.684 210.967 128.108 199.806 133.458 192.374C136.838 187.663 139.435 183.045 139.722 179.381C140.036 175.73 139.005 170.248 139.005 170.248Z" fill="url(#paint0_linear_1_55)"/>
<path d="M247.018 239.779H234.882C233.59 239.779 232.546 240.825 232.546 242.121C232.546 243.416 233.59 244.463 234.882 244.463H247.018C248.31 244.463 249.354 243.416 249.354 242.121C249.354 240.825 248.31 239.779 247.018 239.779Z" fill="#00081A"/>
<path d="M101.708 223.986C87.51 223.986 76 235.526 76 249.762H127.429C127.429 235.526 115.92 223.986 101.708 223.986Z" fill="url(#paint1_linear_1_55)"/>
<path d="M241.381 250.298H189.325C189.325 250.298 182.487 241.113 186.989 230.711C192.966 216.894 210.648 219.301 220.71 225.15C230.771 230.999 238.171 241.676 241.381 250.298Z" fill="url(#paint2_linear_1_55)"/>
<path d="M174.031 214.526L172.765 216.318C172.517 216.672 172.099 216.894 171.668 216.894C170.925 216.894 170.324 216.292 170.324 215.546V205.524C170.324 205.223 170.572 204.987 170.859 204.987H199.295C204.097 204.987 208.378 203.404 210.44 201.703C211.092 201.166 212.071 201.35 212.501 202.082C213.676 204.163 215.033 208.219 211.614 213.086C211.51 213.23 211.34 213.322 211.17 213.322H176.366C175.44 213.309 174.566 213.767 174.031 214.526Z" fill="#00081A"/>
<path d="M228.983 242.696H195.876C195.393 242.696 195.002 243.089 195.002 243.573C195.002 244.057 195.393 244.45 195.876 244.45H228.983C229.466 244.45 229.858 244.057 229.858 243.573C229.858 243.089 229.466 242.696 228.983 242.696Z" fill="#E58E0E"/>
<path d="M219.849 237.803H195.876C195.393 237.803 195.002 238.195 195.002 238.68C195.002 239.164 195.393 239.556 195.876 239.556H219.835C220.318 239.556 220.71 239.164 220.71 238.68C220.723 238.195 220.331 237.803 219.849 237.803Z" fill="#E58E0E"/>
<path d="M211.562 232.909H195.876C195.393 232.909 195.002 233.302 195.002 233.786C195.002 234.27 195.393 234.663 195.876 234.663H211.549C212.032 234.663 212.423 234.27 212.423 233.786C212.436 233.302 212.045 232.909 211.562 232.909Z" fill="#E58E0E"/>
<path d="M249.341 190.791H215.32V212.184H249.341V190.791Z" fill="url(#paint3_linear_1_55)"/>
<path d="M244.004 177.235H220.671V190.791H244.004V177.235Z" fill="url(#paint4_linear_1_55)"/>
<path d="M225.917 213.021C225.904 213.021 225.891 213.021 225.878 213.021C225.721 212.995 225.604 212.851 225.63 212.694L230.876 177.209C230.902 177.052 231.045 176.934 231.202 176.96C231.358 176.986 231.476 177.13 231.45 177.287L226.204 212.772C226.191 212.916 226.06 213.021 225.917 213.021Z" fill="black"/>
<path d="M239.489 213.021C239.345 213.021 239.228 212.916 239.201 212.772L233.955 177.287C233.929 177.13 234.047 176.973 234.203 176.96C234.36 176.934 234.517 177.052 234.53 177.209L239.776 212.694C239.802 212.851 239.684 213.008 239.528 213.021C239.528 213.021 239.502 213.021 239.489 213.021Z" fill="black"/>
<path fill-rule="evenodd" clip-rule="evenodd" d="M123.697 202.959C123.697 202.959 119.769 208.677 118.425 215.847L114.706 216.07C114.706 216.07 117.081 209.226 120.33 204.516L123.697 202.959Z" fill="white"/>
<path d="M253.426 213.309H211.105C210.779 213.309 210.518 213.047 210.518 212.72C210.518 212.393 210.779 212.131 211.105 212.131H253.426C253.752 212.131 254.013 212.393 254.013 212.72C254 213.047 253.739 213.309 253.426 213.309Z" fill="black"/>
<path d="M139.762 179.773C139.735 180.114 139.553 180.598 139.501 180.951C138.652 181.069 138.209 181.108 137.856 181.134C136.212 181.252 132.819 176.856 132.819 175.547C132.819 174.527 136.421 171.216 138.874 169.698C139.07 170.209 140.075 175.717 139.762 179.773Z" fill="#FB8F08"/>
<path d="M145.073 177.706C144.877 177.405 144.603 177.157 144.29 176.973C144.016 176.829 141.236 175.246 141.236 175.246V175.259C140.91 175.102 140.558 175.011 140.179 175.011C138.809 175.011 137.7 176.123 137.7 177.497C137.7 177.942 137.817 178.36 138.026 178.714C138.209 179.028 138.444 179.302 138.757 179.512L138.77 179.525C138.887 179.603 138.992 179.656 139.109 179.721L140.049 180.245L141.641 181.147C141.641 181.147 141.654 181.16 141.667 181.16L141.954 181.331C142.293 181.488 142.646 181.579 143.024 181.579C144.29 181.579 145.321 180.637 145.49 179.433C145.504 179.316 145.517 179.211 145.517 179.093C145.504 178.583 145.347 178.099 145.073 177.706Z" fill="#00081A"/>
<path d="M153.412 239.255H148.048C148.048 239.255 146.104 241.885 143.481 242.225C142.006 242.422 139.266 242.396 137.152 242.33C135.56 242.291 134.242 243.573 134.242 245.169C134.242 246.74 135.507 248.009 137.073 248.009H153.399C154.103 248.009 154.665 247.446 154.665 246.74L153.412 239.255Z" fill="#00081A"/>
<path d="M153.855 240.21H148.492C148.492 240.21 146.548 242.84 143.925 243.181C142.45 243.377 139.709 243.351 137.595 243.285C136.003 243.246 134.685 244.528 134.685 246.125C134.685 247.695 135.951 248.964 137.517 248.964H153.842C154.547 248.964 155.108 248.401 155.108 247.695L153.855 240.21Z" fill="#00081A"/>
<path d="M148.988 239.779C149.197 240.904 150.175 241.754 151.35 241.754C152.524 241.754 153.503 240.904 153.712 239.779H148.988Z" fill="#FCB3BB"/>
<path d="M194.532 192.374C194.532 192.374 160.694 192.374 152.681 192.374C141.954 192.374 141.954 203.574 141.954 208.298C141.954 213.021 145.765 239.543 145.765 239.543H153.882L156.387 208.298C156.387 208.298 180.843 208.298 187.25 208.298C193.658 208.298 197.638 201.075 194.532 192.374Z" fill="#37255C"/>
<path d="M195.302 194.009C195.302 194.009 161.764 194.009 153.986 194.009C143.585 194.009 143.585 204.883 143.585 209.462C143.585 214.042 147.278 239.779 147.278 239.779H155.147L157.575 209.462C157.575 209.462 181.299 209.462 187.511 209.462C193.723 209.462 198.316 202.436 195.302 194.009Z" fill="url(#paint5_linear_1_55)"/>
<path d="M182.082 137.995C182.082 137.995 184.927 134.933 186.571 130.053C186.571 130.053 178.389 118.617 164.648 124.806L182.082 137.995Z" fill="#442F6E"/>
<path d="M164.622 124.806C164.622 124.806 163.656 132.015 166.292 137.615C168.928 143.216 169.581 143.346 174.331 142.404L175.14 148.567L184.157 145.361C184.157 145.361 180.712 135.718 182.069 133.978C183.218 132.513 183.622 129.961 181.952 129.071C179.303 127.671 177.371 130.759 177.254 132.055L175.949 127.2C175.962 127.213 166.644 124.047 164.622 124.806Z" fill="url(#paint6_linear_1_55)"/>
<path d="M167.362 125.539C167.323 125.539 167.297 125.539 167.258 125.525L152.316 122.542C152.042 122.49 151.872 122.228 151.924 121.953C151.976 121.679 152.237 121.509 152.511 121.561L167.453 124.544C167.727 124.596 167.897 124.858 167.845 125.133C167.793 125.368 167.597 125.539 167.362 125.539Z" fill="#CC0A31"/>
<path d="M164.674 125.054L186.676 130.013C186.676 130.013 188.973 119.415 179.316 116.68C169.659 113.946 164.935 120.122 164.674 125.054Z" fill="url(#paint7_linear_1_55)"/>
<path d="M184.405 167.998C184.405 167.998 184.157 168.665 183.753 169.685C183.635 169.999 183.492 170.353 183.335 170.732C183.27 170.863 183.218 171.007 183.152 171.151C183.087 171.282 183.035 171.426 182.97 171.57C181.795 174.252 180.112 177.562 178.768 178.243C178.011 178.622 174.278 178.661 169.62 178.57C160.093 178.347 146.691 177.458 146.691 177.458C146.691 177.458 146.039 177.562 145.06 177.719C144.864 177.418 144.59 177.17 144.277 176.987V176.973C144.003 176.829 141.223 175.246 141.223 175.246V175.259C140.897 175.102 140.545 175.011 140.166 175.011C138.796 175.011 137.687 176.123 137.687 177.497C137.687 177.942 137.804 178.36 138.013 178.714C137.987 178.727 137.961 178.727 137.935 178.727C136.773 178.792 134.646 176.385 133.811 174.788C134.737 173.506 137.243 171.347 138.979 170.261C138.979 170.261 138.952 169.489 138.287 168.927C139.2 168.285 140.01 167.84 140.453 167.814C141.915 167.71 148.231 172.014 148.231 172.014L169.098 170.889L173.717 170.641L173.861 170.183L174.004 169.764L174.135 169.345L175.074 166.558L184.405 167.998Z" fill="#FA8B98"/>
<path d="M171.355 192.845C171.355 192.845 169.489 164.556 172.125 154.691C174.683 145.074 183.061 141.24 187.72 147.376C192.379 153.513 190.539 163.418 190.93 171.504C191.661 186.564 195.158 191.235 195.302 194.022H171.355V192.845Z" fill="url(#paint8_linear_1_55)"/>
<path fill-rule="evenodd" clip-rule="evenodd" d="M189.077 157.137L185.671 172.289L172.06 170.209L175.753 155.188L189.077 157.137Z" fill="#BC2060"/>
<path d="M184.405 169.777C184.405 169.777 184.262 170.183 184.001 170.824C183.961 170.955 183.883 171.085 183.831 171.242C183.792 171.373 183.714 171.504 183.661 171.661C182.552 174.383 180.412 179.185 178.755 180.009C177.998 180.388 174.37 180.441 169.776 180.349H169.763C160.237 180.127 146.691 179.237 146.691 179.237C146.691 179.237 146.208 179.316 145.477 179.433C145.49 179.316 145.504 179.211 145.504 179.093C145.504 178.583 145.347 178.086 145.073 177.693C144.877 177.392 144.603 177.144 144.29 176.96V176.973C144.016 176.83 141.236 175.246 141.236 175.246V175.259C140.91 175.102 140.558 175.011 140.179 175.011C138.809 175.011 137.7 176.123 137.7 177.497C137.7 177.942 137.817 178.36 138.026 178.714C138.209 179.028 138.444 179.302 138.757 179.512L138.77 179.525C138.887 179.603 138.992 179.656 139.109 179.721L140.049 180.245C139.905 180.271 139.762 180.284 139.631 180.297C138.887 180.402 138.274 180.48 137.961 180.493C136.499 180.598 133.485 176.699 133.485 175.521C133.485 175.338 133.615 175.089 133.837 174.762C134.764 173.48 137.269 171.321 139.005 170.235C139.631 169.842 140.153 169.594 140.479 169.581C141.941 169.476 148.257 173.768 148.257 173.768L169.202 172.656H169.215L173.743 172.407L174.461 170.235L174.605 169.816L174.735 169.398L175.101 168.298L183.766 169.659L184.405 169.777Z" fill="url(#paint9_linear_1_55)"/>
<path d="M175.753 154.677L172.987 169.594L185.097 171.439L189.077 156.627L175.753 154.677Z" fill="url(#paint10_linear_1_55)"/>
</g>
<defs>
<linearGradient id="paint0_linear_1_55" x1="106.253" y1="187.465" x2="227.914" y2="267.245" gradientUnits="userSpaceOnUse">
<stop stop-color="#FDBE42"/>
<stop offset="1" stop-color="#F7931E"/>
</linearGradient>
<linearGradient id="paint1_linear_1_55" x1="76" y1="236.872" x2="127.426" y2="236.872" gradientUnits="userSpaceOnUse">
<stop stop-color="#FDBE42"/>
<stop offset="1" stop-color="#F7931E"/>
</linearGradient>
<linearGradient id="paint2_linear_1_55" x1="190.876" y1="228.188" x2="235.896" y2="258.246" gradientUnits="userSpaceOnUse">
<stop stop-color="#FDBE42"/>
<stop offset="1" stop-color="#F7931E"/>
</linearGradient>
<linearGradient id="paint3_linear_1_55" x1="215.437" y1="201.491" x2="248.868" y2="201.491" gradientUnits="userSpaceOnUse">
<stop stop-color="#E09E4F"/>
<stop offset="1" stop-color="#CD8B3A"/>
</linearGradient>
<linearGradient id="paint4_linear_1_55" x1="220.671" y1="184.015" x2="244.003" y2="184.015" gradientUnits="userSpaceOnUse">
<stop stop-color="#F4B073"/>
<stop offset="1" stop-color="#E2995C"/>
</linearGradient>
<linearGradient id="paint5_linear_1_55" x1="143.581" y1="216.891" x2="196.25" y2="216.891" gradientUnits="userSpaceOnUse">
<stop stop-color="#473071"/>
<stop offset="1" stop-color="#382A5F"/>
</linearGradient>
<linearGradient id="paint6_linear_1_55" x1="164.676" y1="130.218" x2="182.505" y2="141.221" gradientUnits="userSpaceOnUse">
<stop stop-color="#FDD7DB"/>
<stop offset="1" stop-color="#FBADAF"/>
</linearGradient>
<linearGradient id="paint7_linear_1_55" x1="167.533" y1="117.651" x2="186.896" y2="130.116" gradientUnits="userSpaceOnUse">
<stop stop-color="#FF5B96"/>
<stop offset="1" stop-color="#DA3362"/>
</linearGradient>
<linearGradient id="paint8_linear_1_55" x1="166.787" y1="158.628" x2="192.871" y2="183" gradientUnits="userSpaceOnUse">
<stop stop-color="#FF5B96"/>
<stop offset="1" stop-color="#DA3362"/>
</linearGradient>
<linearGradient id="paint9_linear_1_55" x1="133.471" y1="174.415" x2="184.409" y2="174.415" gradientUnits="userSpaceOnUse">
<stop stop-color="#FDD7DB"/>
<stop offset="1" stop-color="#FBADAF"/>
</linearGradient>
<linearGradient id="paint10_linear_1_55" x1="170.651" y1="153.36" x2="197.183" y2="178.151" gradientUnits="userSpaceOnUse">
<stop stop-color="#FF5B96"/>
<stop offset="1" stop-color="#DA3362"/>
</linearGradient>
<clipPath id="clip0_1_55">
<rect width="333" height="273" fill="white"/>
</clipPath>
</defs>
</svg>
