<svg width="61" height="61" viewBox="0 0 61 61" fill="none" xmlns="http://www.w3.org/2000/svg">
<g clip-path="url(#clip0_2_523)">
<rect width="61" height="61" rx="30.5" fill="#4158CC"/>
<path d="M38.0668 47.928C38.0668 47.928 47.941 40.1134 48.5399 39.1275C49.1387 38.1415 50.4314 34.4898 50.4314 34.4898L56.873 30.3707C56.873 30.3707 57.4719 30.546 56.6977 31.291C55.9236 32.0432 53.9955 33.891 53.9955 33.891C53.9955 33.891 55.8871 35.6949 54.9814 36.8926C54.9814 36.8926 55.7118 38.8353 54.1197 39.9893C52.5348 41.1432 51.5854 40.7123 50.6432 41.6983C49.7011 42.6842 40.3455 52.4707 40.3455 52.4707L38.0668 47.928Z" fill="url(#paint0_linear_2_523)"/>
<path d="M54.2292 38.6163C54.2146 38.6163 54.2073 38.6163 54.1927 38.6163C53.8348 38.5651 53.2433 37.7764 52.6663 36.9219C52.586 36.8123 52.5275 36.7174 52.491 36.6736C52.4691 36.7101 52.4399 36.7758 52.4107 36.8415C52.25 37.2067 51.9213 37.9736 50.9354 38.4483C50.9062 38.4629 50.877 38.4483 50.8624 38.4191C50.8478 38.3899 50.8624 38.3606 50.8916 38.346C51.841 37.8932 52.1551 37.1556 52.3084 36.7977C52.3742 36.637 52.4107 36.5567 52.4764 36.5494C52.4983 36.5494 52.5348 36.5494 52.564 36.5859C52.5933 36.6224 52.659 36.7174 52.7539 36.8562C53.0826 37.3309 53.8421 38.4483 54.2073 38.4994C54.2438 38.5067 54.2657 38.4994 54.2876 38.4775C54.6382 38.1854 54.1343 36.6078 53.5354 35.7533C52.9511 34.9208 51.3809 35.1618 51.3663 35.1618C51.3371 35.1691 51.3079 35.1472 51.3006 35.1179C51.2933 35.0887 51.3152 35.0595 51.3444 35.0522C51.4101 35.0449 52.9949 34.7966 53.623 35.6876C54.2073 36.5129 54.7916 38.2 54.3534 38.5651C54.3242 38.6017 54.2803 38.6163 54.2292 38.6163Z" fill="#564134"/>
<path d="M53.0095 39.6167C52.8854 39.6167 52.7685 39.6021 52.6663 39.5656C52.0455 39.3392 51.4904 38.0903 51.4685 38.0392C51.4539 38.01 51.4685 37.9735 51.4977 37.9662C51.527 37.9516 51.5635 37.9662 51.5708 37.9954C51.5781 38.01 52.1331 39.2516 52.7028 39.4634C53.214 39.6459 54.2146 39.2151 54.2292 39.2077C54.2584 39.1931 54.2876 39.2077 54.3022 39.237C54.3168 39.2662 54.3022 39.3027 54.273 39.31C54.2438 39.3173 53.5646 39.6167 53.0095 39.6167Z" fill="#564134"/>
<path d="M52.4983 35.1837C52.4764 35.1837 52.4618 35.1764 52.4472 35.1545C52.4325 35.1253 52.4398 35.096 52.4691 35.0741L53.5573 34.4095C53.5865 34.3949 53.6157 34.4022 53.6376 34.4314C53.6522 34.4606 53.6449 34.4899 53.6157 34.5118L52.5275 35.1764C52.5129 35.1837 52.5056 35.1837 52.4983 35.1837Z" fill="#564134"/>
<path d="M20.0056 28.6618C20.0056 28.6618 18.0994 26.6241 16.982 23.3741C16.982 23.3741 22.423 15.7275 31.6326 19.8247L20.0056 28.6618Z" fill="#442F6E"/>
<path d="M31.6545 19.8246C31.6545 19.8246 32.3191 24.6303 30.5663 28.3696C28.8135 32.1089 28.3826 32.1965 25.1983 31.5831L24.6724 35.6949L18.6399 33.5842C18.6399 33.5842 20.9185 27.1426 20.0056 25.9887C19.2314 25.0173 18.9539 23.3083 20.0713 22.7168C21.8387 21.7746 23.1387 23.8342 23.2191 24.696L24.0809 21.4606C24.0809 21.4606 30.3033 19.3207 31.6545 19.8246Z" fill="url(#paint1_linear_2_523)"/>
<path d="M29.8213 20.3213C29.8432 20.3213 29.8651 20.3213 29.887 20.314L39.8708 18.2909C40.0533 18.2544 40.1702 18.0791 40.1337 17.8966C40.0972 17.714 39.9219 17.5971 39.7393 17.6336L29.7556 19.6567C29.573 19.6932 29.4562 19.8685 29.4927 20.051C29.5292 20.2117 29.6679 20.3213 29.8213 20.3213Z" fill="#CC0A31"/>
<path d="M31.618 19.9927L16.9163 23.3522C16.9163 23.3522 15.3534 16.2898 21.8022 14.4421C28.2584 12.587 31.4281 16.7061 31.618 19.9927Z" fill="url(#paint2_linear_2_523)"/>
<path d="M28.1489 39.9893L35.832 46.6572L32.8668 52.3101L27.5573 48.5269L28.1489 39.9893Z" fill="url(#paint3_linear_2_523)"/>
<path d="M27.6522 68.0123C27.6522 68.0123 31.0921 46.7084 28.1562 39.9966C25.2202 33.2775 19.2388 30.9696 15.8792 35.3809C12.5197 39.7848 13.8489 46.8983 13.5713 52.6972C13.0455 63.5062 10.5258 66.8657 10.4236 68.8595H27.6522V68.0123Z" fill="url(#paint4_linear_2_523)"/>
<path d="M16.7556 41.8444L15.105 41.6399L16.7702 53.2011L20.1809 52.836L16.7556 41.8444Z" fill="#BC2060"/>
<path d="M28.1927 48.8701H44.764V61.6656H28.1927V48.8701Z" fill="url(#paint5_linear_2_523)"/>
<path d="M31.9685 44.2179H40.9882V48.8702H31.9685V44.2179Z" fill="url(#paint6_linear_2_523)"/>
<path d="M25.359 50.9808L26.4764 58.0578L43.391 60.9791C43.391 60.9791 44.764 60.0808 44.9831 59.0438C45.1949 58.014 46.0567 58.5252 45.6697 59.7303C45.6697 59.7303 46.568 58.832 46.8747 60.1612C47.1742 61.4904 47.1303 64.1999 44.1286 64.8426C41.609 65.3831 27.0826 63.7836 22.4449 63.2578C21.5905 63.1629 20.9039 62.5275 20.7287 61.6876L18.7567 52.0544L25.359 50.9808Z" fill="url(#paint7_linear_2_523)"/>
<path d="M15.105 41.6399L17.3326 52.5L26.2646 51.6966L24.8404 40.8219" fill="url(#paint8_linear_2_523)"/>
</g>
<defs>
<linearGradient id="paint0_linear_2_523" x1="38.067" y1="41.4236" x2="57.0939" y2="41.4236" gradientUnits="userSpaceOnUse">
<stop stop-color="#FDD7DB"/>
<stop offset="1" stop-color="#FBADAF"/>
</linearGradient>
<linearGradient id="paint1_linear_2_523" x1="31.6291" y1="23.4376" x2="19.7495" y2="30.8428" gradientUnits="userSpaceOnUse">
<stop stop-color="#FDD7DB"/>
<stop offset="1" stop-color="#FBADAF"/>
</linearGradient>
<linearGradient id="paint2_linear_2_523" x1="29.6912" y1="15.0635" x2="16.7916" y2="23.4497" gradientUnits="userSpaceOnUse">
<stop stop-color="#DA3362"/>
<stop offset="1" stop-color="#FF5B96"/>
</linearGradient>
<linearGradient id="paint3_linear_2_523" x1="27.5545" y1="46.1497" x2="35.8346" y2="46.1497" gradientUnits="userSpaceOnUse">
<stop stop-color="#DA3362"/>
<stop offset="1" stop-color="#DA3362"/>
</linearGradient>
<linearGradient id="paint4_linear_2_523" x1="13.9395" y1="48.9733" x2="29.5311" y2="61.8364" gradientUnits="userSpaceOnUse">
<stop stop-color="#FF5B96"/>
<stop offset="1" stop-color="#DA3362"/>
</linearGradient>
<linearGradient id="paint5_linear_2_523" x1="28.1927" y1="55.2691" x2="44.7644" y2="55.2691" gradientUnits="userSpaceOnUse">
<stop stop-color="#CD8B3A"/>
<stop offset="1" stop-color="#E09E4F"/>
</linearGradient>
<linearGradient id="paint6_linear_2_523" x1="31.9707" y1="46.5443" x2="40.9864" y2="46.5443" gradientUnits="userSpaceOnUse">
<stop stop-color="#E2995C"/>
<stop offset="1" stop-color="#F4B073"/>
</linearGradient>
<linearGradient id="paint7_linear_2_523" x1="18.7501" y1="57.9679" x2="46.9891" y2="57.9679" gradientUnits="userSpaceOnUse">
<stop stop-color="#FDD7DB"/>
<stop offset="1" stop-color="#FBADAF"/>
</linearGradient>
<linearGradient id="paint8_linear_2_523" x1="18.1217" y1="43.9343" x2="32.9932" y2="57.6235" gradientUnits="userSpaceOnUse">
<stop stop-color="#FF5B96"/>
<stop offset="1" stop-color="#DA3362"/>
</linearGradient>
<clipPath id="clip0_2_523">
<rect width="61" height="61" rx="30.5" fill="white"/>
</clipPath>
</defs>
</svg>
